#!OML:ASF I:\Actors\actors\Patient Classification 1\Patient 1\Session 1\Subject1.ASF
:FULLY-SPECIFIED
:DEGREES
537
root 0.698644 17.4895 9.23368 7.90786 -5.69381 -9.91612
lowerback -2.45764 2.34714 5.88709
upperback -8.61559 3.34771 1.44979
thorax -7.4234 1.3149 -1.88379
lowerneck -13.354 -4.12741 -1.27733
upperneck 30.6913 -8.08473 7.12573
head 12.8173 -2.84247 1.74827
rclavicle -2.08724e-015 7.95139e-016
rhumerus 35.3725 49.0004 -32.3524
rradius 101.56
rwrist -4.04856
rhand 64.2561 -59.2222
rfingers 7.12502
rthumb 74.9578 -11.1651
lclavicle -2.08724e-015 7.95139e-016
lhumerus -40.9119 -13.165 100.206
lradius 104.266
lwrist 17.8542
lhand -28.2327 -6.05873
lfingers 7.12502
lthumb -1.61067 23.9149
rfemur -4.55593 22.0151 26.4847
rtibia 6.1767
rfoot -11.8463 -19.8153
rtoes -0.197414
lfemur 9.70712 -43.8762 -15.034
ltibia -4.69176
lfoot -30.9089 55.1477
ltoes 20.1126
538
root 0.699925 17.4911 9.22983 7.83016 -5.52674 -9.8871
lowerback -2.38309 2.25327 5.93992
upperback -8.61141 3.22902 1.44948
thorax -7.4688 1.251 -1.91283
lowerneck -13.3579 -4.07459 -1.18982
upperneck 30.6939 -7.98927 6.99919
head 12.8026 -2.80633 1.69894
rclavicle -1.02374e-014 -1.27222e-014
rhumerus 35.365 48.6058 -32.0815
rradius 100.093
rwrist -2.15989
rhand 63.1758 -60.3189
rfingers 7.12502
rthumb 74.9776 -16.2848
lclavicle -1.02374e-014 -1.27222e-014
lhumerus -41.0413 -13.166 100.138
lradius 104.35
lwrist 17.7838
lhand -28.1196 -5.92254
lfingers 7.12502
lthumb -1.50143 24.0519
rfemur -4.487 21.9358 26.4723
rtibia 6.17435
rfoot -11.8898 -19.9118
rtoes -0.322045
lfemur 9.6418 -43.8065 -14.9901
ltibia -4.68033
lfoot -30.5555 54.9574
ltoes 20.027
539
root 0.701224 17.4939 9.22619 7.80845 -5.57226 -9.84199
lowerback -2.35894 2.22616 6.01485
upperback -8.61973 3.19462 1.42111
thorax -7.49013 1.22664 -1.98406
lowerneck -13.3958 -4.02102 -1.17947
upperneck 30.7697 -7.90569 6.95031
head 12.8342 -2.77132 1.69145
rclavicle 4.96962e-016 1.82882e-014
rhumerus 35.6734 48.3154 -31.8427
rradius 98.7494
rwrist 0.464056
rhand 60.6876 -59.2408
rfingers 7.12502
rthumb 74.7362 -24.3689
lclavicle 4.96962e-016 1.82882e-014
lhumerus -41.2012 -13.1756 100.036
lradius 104.444
lwrist 17.7858
lhand -28.0444 -5.85379
lfingers 7.12502
lthumb -1.4288 24.1212
rfemur -4.496 21.987 26.41
rtibia 6.17834
rfoot -11.9168 -19.9226
rtoes 0.141508
lfemur 9.60082 -43.7331 -15.0171
ltibia -4.64262
lfoot -30.4806 54.905
ltoes 19.9992
540
root 0.702666 17.4956 9.22299 7.82882 -5.83545 -9.79001
lowerback -2.3845 2.26924 6.11088
upperback -8.62518 3.24847 1.36751
thorax -7.47039 1.24477 -2.09402
lowerneck -13.3983 -4.00597 -1.04406
upperneck 30.8206 -7.88772 6.83047
head 12.8427 -2.76206 1.6251
rclavicle -5.76476e-015 -2.06736e-014
rhumerus 36.2075 48.1368 -31.7517
rradius 97.6113
rwrist 3.59694
rhand 56.8635 -56.9283
rfingers 7.12502
rthumb 73.6355 -35.0267
lclavicle -5.76476e-015 -2.06736e-014
lhumerus -41.3382 -13.2013 99.8896
lradius 104.503
lwrist 17.8428
lhand -28.0479 -5.8707
lfingers 7.12502
lthumb -1.43215 24.1042
rfemur -4.56779 22.1047 26.3159
rtibia 6.20019
rfoot -11.8555 -19.7925
rtoes 0.279506
lfemur 9.6814 -43.7097 -15.1732
ltibia -4.63408
lfoot -30.9187 55.0067
ltoes 20.322
541
root 0.704056 17.4955 9.22123 7.85942 -6.27711 -9.71459
lowerback -2.41839 2.35687 6.18731
upperback -8.6307 3.35956 1.2991
thorax -7.44078 1.29224 -2.20995
lowerneck -13.4015 -3.95374 -1.04543
upperneck 30.892 -7.82652 6.85329
head 12.8712 -2.73049 1.64444
rclavicle -2.41523e-014 1.19271e-014
rhumerus 36.8784 48.1036 -31.9215
rradius 96.6205
rwrist 6.76343
rhand 51.9798 -54.3394
rfingers 7.12502
rthumb 71.1904 -45.846
lclavicle -2.41523e-014 1.19271e-014
lhumerus -41.4318 -13.2096 99.7063
lradius 104.539
lwrist 17.8794
lhand -28.1483 -5.9799
lfingers 7.12502
lthumb -1.52911 23.9944
rfemur -4.65255 22.2662 26.1883
rtibia 6.24211
rfoot -11.7637 -19.5393
rtoes 0.154099
lfemur 9.9559 -43.8177 -15.5327
ltibia -4.67485
lfoot -31.7806 55.3071
ltoes 21.0252
542
root 0.704895 17.495 9.21932 7.93323 -6.83102 -9.63458
lowerback -2.46306 2.49233 6.30839
upperback -8.65004 3.53221 1.18128
thorax -7.40938 1.365 -2.40369
lowerneck -13.3878 -3.9424 -0.979017
upperneck 30.9069 -7.85326 6.91805
head 12.8774 -2.72689 1.65427
rclavicle 5.96354e-015 -1.59028e-015
rhumerus 37.5589 48.2082 -32.278
rradius 95.8509
rwrist 9.50654
rhand 46.4885 -51.8014
rfingers 7.12502
rthumb 67.5024 -54.1694
lclavicle 5.96354e-015 -1.59028e-015
lhumerus -41.4616 -13.2771 99.4808
lradius 104.535
lwrist 17.8757
lhand -28.247 -5.98509
lfingers 7.12502
lthumb -1.62447 23.9885
rfemur -4.80644 22.3486 26.0261
rtibia 6.30562
rfoot -11.6414 -19.1043
rtoes -0.0435133
lfemur 10.1988 -43.8677 -15.8903
ltibia -4.6902
lfoot -32.7474 55.625
ltoes 21.6633
543
root 0.704052 17.4939 9.21539 8.09268 -7.4211 -9.63915
lowerback -2.53018 2.68145 6.52011
upperback -8.68918 3.7767 1.04966
thorax -7.37405 1.46656 -2.66271
lowerneck -13.3831 -3.85447 -0.75641
upperneck 30.9065 -7.78347 6.91481
head 12.8638 -2.67059 1.6255
rclavicle 2.46493e-014 -1.03368e-014
rhumerus 38.2076 48.4181 -32.5875
rradius 95.327
rwrist 11.5896
rhand 40.3398 -49.0487
rfingers 7.12502
rthumb 62.6762 -59.6743
lclavicle 2.46493e-014 -1.03368e-014
lhumerus -41.4218 -13.4246 99.2964
lradius 104.496
lwrist 17.8521
lhand -28.1374 -5.81452
lfingers 7.12502
lthumb -1.51857 24.1598
rfemur -5.08324 22.3778 25.9194
rtibia 6.3904
rfoot -11.4619 -18.5766
rtoes -0.643132
lfemur 10.2087 -43.7275 -15.9612
ltibia -4.65215
lfoot -33.6524 55.8034
ltoes 22.0936
544
root 0.702387 17.4928 9.21171 8.20429 -7.99334 -9.66142
lowerback -2.50558 2.85099 6.65875
upperback -8.72777 4.00536 0.981415
thorax -7.39817 1.56564 -2.81883
lowerneck -13.3348 -3.85464 -0.64405
upperneck 30.7901 -7.7879 6.87012
head 12.7982 -2.6708 1.58731
rclavicle -1.25234e-014 -3.81667e-014
rhumerus 38.9646 48.8516 -32.6645
rradius 94.9453
rwrist 12.8623
rhand 33.4669 -46.3598
rfingers 7.12502
rthumb 56.7939 -63.1162
lclavicle -1.25234e-014 -3.81667e-014
lhumerus -41.3433 -13.4535 99.2151
lradius 104.452
lwrist 17.801
lhand -27.9386 -5.7534
lfingers 7.12502
lthumb -1.32665 24.2222
rfemur -5.27399 22.5152 25.8651
rtibia 6.43042
rfoot -11.326 -18.1546
rtoes -0.943017
lfemur 10.283 -43.5847 -16.039
ltibia -4.642
lfoot -34.5287 55.9637
ltoes 22.5834
545
root 0.701665 17.4925 9.20975 8.23251 -8.50251 -9.62119
lowerback -2.40758 2.9672 6.70205
upperback -8.7524 4.16845 0.941862
thorax -7.46128 1.63856 -2.89455
lowerneck -13.3012 -3.82882 -0.645787
upperneck 30.7301 -7.75999 6.91878
head 12.7674 -2.65571 1.61034
rclavicle -1.68967e-015 2.22639e-014
rhumerus 39.8607 49.5249 -32.479
rradius 94.6946
rwrist 13.5276
rhand 26.9812 -44.1693
rfingers 7.12502
rthumb 50.9737 -64.8654
lclavicle -1.68967e-015 2.22639e-014
lhumerus -41.3249 -13.3484 99.1768
lradius 104.463
lwrist 17.7464
lhand -27.8306 -5.7979
lfingers 7.12502
lthumb -1.2223 24.1783
rfemur -5.3245 22.7323 25.7864
rtibia 6.41373
rfoot -11.2342 -17.8657
rtoes -0.946042
lfemur 10.4707 -43.4741 -16.2691
ltibia -4.64911
lfoot -35.3481 56.1034
ltoes 23.1629
546
root 0.701955 17.492 9.20868 8.28575 -8.86205 -9.59491
lowerback -2.3779 3.04282 6.74359
upperback -8.7546 4.27139 0.922513
thorax -7.46725 1.6853 -2.94211
lowerneck -13.3847 -3.79456 -0.646466
upperneck 30.7435 -7.73358 6.97899
head 12.793 -2.63381 1.6363
rclavicle -1.69961e-014 -3.97569e-015
rhumerus 40.6178 50.1459 -32.2007
rradius 94.818
rwrist 13.4801
rhand 22.6621 -42.1715
rfingers 7.12502
rthumb 47.0064 -64.8349
lclavicle -1.69961e-014 -3.97569e-015
lhumerus -41.3249 -13.2184 99.14
lradius 104.542
lwrist 17.7389
lhand -27.82 -5.78268
lfingers 7.12502
lthumb -1.21205 24.1936
rfemur -5.3917 22.8882 25.7193
rtibia 6.38659
rfoot -11.1472 -17.6757
rtoes -1.14853
lfemur 10.5165 -43.3377 -16.3758
ltibia -4.62298
lfoot -35.8573 56.1657
ltoes 23.5163
547
root 0.702076 17.4911 9.20893 8.34922 -9.01639 -9.57619
lowerback -2.40205 3.08669 6.77136
upperback -8.74183 4.32642 0.903606
thorax -7.43084 1.71147 -2.9767
lowerneck -13.5278 -3.78588 -0.65547
upperneck 30.7364 -7.74827 7.0607
head 12.8267 -2.62696 1.66442
rclavicle -2.26615e-014 -7.95139e-016
rhumerus 41.0024 50.527 -32.0643
rradius 95.3874
rwrist 12.7802
rhand 21.7401 -39.8419
rfingers 7.12502
rthumb 46.1525 -62.8726
lclavicle -2.26615e-014 -7.95139e-016
lhumerus -41.238 -13.1057 99.1763
lradius 104.567
lwrist 17.6992
lhand -27.8282 -5.95698
lfingers 7.12502
lthumb -1.21996 24.0193
rfemur -5.46472 22.912 25.6602
rtibia 6.35967
rfoot -11.1148 -17.5669
rtoes -1.23418
lfemur 10.4785 -43.3078 -16.402
ltibia -4.60189
lfoot -36.0496 56.2246
ltoes 23.5648
548
root 0.701312 17.4915 9.20871 8.36999 -9.01273 -9.55101
lowerback -2.3749 3.10339 6.75061
upperback -8.73582 4.3501 0.893638
thorax -7.43794 1.72415 -2.9778
lowerneck -13.6101 -3.80421 -0.720522
upperneck 30.6622 -7.80426 7.22017
head 12.8283 -2.63845 1.72609
rclavicle -4.96962e-016 3.89618e-014
rhumerus 41.0619 50.7683 -32.0544
rradius 96.2728
rwrist 11.7556
rhand 24.3339 -37.1424
rfingers 7.12502
rthumb 48.5489 -59.095
lclavicle -4.96962e-016 3.89618e-014
lhumerus -41.0976 -13.0266 99.3624
lradius 104.506
lwrist 17.6011
lhand -27.8393 -6.1698
lfingers 7.12502
lthumb -1.23069 23.8064
rfemur -5.49028 22.8727 25.6177
rtibia 6.34513
rfoot -11.1103 -17.5454
rtoes -1.25898
lfemur 10.4227 -43.3258 -16.4004
ltibia -4.58166
lfoot -36.0257 56.2354
ltoes 23.4871
549
root 0.699029 17.4916 9.20853 8.36789 -8.87916 -9.56343
lowerback -2.33653 3.06691 6.66383
upperback -8.73452 4.3061 0.941632
thorax -7.47138 1.70913 -2.88091
lowerneck -13.6417 -3.90514 -0.89346
upperneck 30.5271 -7.97655 7.47158
head 12.8103 -2.70591 1.82371
rclavicle -2.38542e-015 -5.56597e-015
rhumerus 40.7654 50.9231 -32.207
rradius 97.4289
rwrist 9.60789
rhand 29.7272 -34.5529
rfingers 7.12502
rthumb 53.4615 -53.7486
lclavicle -2.38542e-015 -5.56597e-015
lhumerus -40.9838 -12.9832 99.5509
lradius 104.451
lwrist 17.5634
lhand -27.9476 -6.20238
lfingers 7.12502
lthumb -1.33528 23.7732
rfemur -5.48368 22.824 25.6418
rtibia 6.34338
rfoot -11.0737 -17.6059
rtoes -1.45667
lfemur 10.3243 -43.3291 -16.294
ltibia -4.54847
lfoot -35.8669 56.1585
ltoes 23.3993
550
root 0.696298 17.4911 9.21159 8.3543 -8.61845 -9.64041
lowerback -2.32883 2.99571 6.60522
upperback -8.72543 4.21448 1.01083
thorax -7.48298 1.67052 -2.77387
lowerneck -13.6705 -4.10859 -1.24046
upperneck 30.3484 -8.31473 7.92345
head 12.8042 -2.84313 2.00213
rclavicle -1.5704e-014 -1.51076e-014
rhumerus 40.1099 50.9793 -32.4512
rradius 98.7562
rwrist 6.23136
rhand 36.719 -33.3141
rfingers 7.12502
rthumb 59.6243 -47.4829
lclavicle -1.5704e-014 -1.51076e-014
lhumerus -40.8914 -12.9907 99.6937
lradius 104.372
lwrist 17.5119
lhand -28.1352 -6.34673
lfingers 7.12502
lthumb -1.51645 23.6276
rfemur -5.43395 22.6943 25.7616
rtibia 6.35687
rfoot -11.0994 -17.6856
rtoes -1.51138
lfemur 10.2871 -43.4458 -16.1436
ltibia -4.56503
lfoot -35.6234 56.139
ltoes 23.2079
551
root 0.695101 17.4918 9.21522 8.33342 -8.249 -9.71054
lowerback -2.30667 2.90128 6.55129
upperback -8.72675 4.09371 1.07635
thorax -7.51623 1.6161 -2.67352
lowerneck -13.6875 -4.25836 -1.60107
upperneck 30.2166 -8.57362 8.37738
head 12.814 -2.94503 2.19697
rclavicle -9.34288e-015 1.11319e-014
rhumerus 39.319 50.9874 -32.5384
rradius 100.13
rwrist 2.62443
rhand 44.1039 -34.0787
rfingers 7.12502
rthumb 65.6971 -40.0506
lclavicle -9.34288e-015 1.11319e-014
lhumerus -40.7696 -13.0133 99.8663
lradius 104.253
lwrist 17.4142
lhand -28.255 -6.51706
lfingers 7.12502
lthumb -1.63223 23.4564
rfemur -5.35729 22.5334 25.8799
rtibia 6.34869
rfoot -11.2142 -17.8462
rtoes -1.33213
lfemur 10.2812 -43.7143 -16.0307
ltibia -4.62425
lfoot -35.2825 56.2271
ltoes 22.9404
